# xmcd
#
# Track frame offsets: 
#        150
#        15550
#        27062
#        42267
#        55870
#        69572
#        81182
#        92252
#        109732
#        123052
#
# Disc length: 1878 seconds
#
# Revision: 2
# Processed by: cddbd v1.5PL3 Copyright (c) Steve Scherf et al.
# Submitted via: ExactAudioCopy v0.90b4
#
DISCID=6d07540a
DTITLE=Sawyer Brown - Cafe On The Corner
DYEAR=1992
DGENRE=Country
TTITLE0=Cafe On The Corner
TTITLE1=Trouble On the Line
TTITLE2=All These Years
TTITLE3=Travelin' Shoes
TTITLE4=A Different Tune
TTITLE5=Lesson In Love
TTITLE6=Chain Of Love
TTITLE7=Homestead In My Heart
TTITLE8=I Kept My Motor Runnin'
TTITLE9=Sister's Got A New Tattoo
EXTD=
EXTT0=
EXTT1=
EXTT2=
EXTT3=
EXTT4=
EXTT5=
EXTT6=
EXTT7=
EXTT8=Duet With Donna McElroy
EXTT9=
PLAYORDER=
